<svg xmlns="http://www.w3.org/2000/svg" version="1.1" xmlns:xlink="http://www.w3.org/1999/xlink" xmlns:svgjs="http://svgjs.dev/svgjs" width="2000" height="1500" viewBox="0 0 2000 1500"><rect width="2000" height="1500" fill="#ffffff"></rect><g transform="matrix(0.75,0,0,0.75,249.090909090909,521.811656519919)"><svg viewBox="0 0 396 121" data-background-color="#ffffff" preserveAspectRatio="xMidYMid meet" height="611" width="2000" xmlns="http://www.w3.org/2000/svg" xmlns:xlink="http://www.w3.org/1999/xlink"><g id="tight-bounds" transform="matrix(1,0,0,1,0.24000000000003752,-0.2473222889475153)"><svg viewBox="0 0 395.5199999999999 121.49464457789503" height="121.49464457789503" width="395.5199999999999"><g><svg viewBox="0 0 675.9593298933494 207.6391548708146" height="121.49464457789503" width="395.5199999999999"><g><svg viewBox="0 0 395.52 207.6391548708146" height="207.6391548708146" width="395.52"><g id="textblocktransform"><svg viewBox="0 0 395.52 207.6391548708146" height="207.6391548708146" width="395.52" id="textblock"><g><svg viewBox="0 0 395.52 152.52702474351238" height="152.52702474351238" width="395.52"><g transform="matrix(1,0,0,1,0,0)"><svg width="395.52" viewBox="3.15 -31.5 82.83999999999999 31.95" height="152.52702474351238" data-palette-color="#1a314d"><path d="M6 0L3.15 0 3.15-29.55 6.85-29.55 13.25-5.5 19.8-29.55 23.35-29.55 23.35 0 20.55 0 20.55-23.9 14.4 0 12.15 0 6-23.9 6 0ZM35.35 0.35L35.35 0.35Q33.05 0.35 31.52-0.28 30-0.9 29.27-2.5 28.55-4.1 28.55-6.9L28.55-6.9 28.55-18.45Q28.55-22.05 30.12-23.6 31.7-25.15 35.35-25.15L35.35-25.15Q39-25.15 40.57-23.65 42.15-22.15 42.15-18.45L42.15-18.45 42.15-6.9Q42.15-4.1 41.45-2.53 40.75-0.95 39.25-0.3 37.75 0.35 35.35 0.35ZM35.35-1.6L35.35-1.6Q37.35-1.6 38.2-2.6 39.05-3.6 39.05-6.25L39.05-6.25 39.05-18.6Q39.05-21.05 38.25-22.13 37.45-23.2 35.35-23.2L35.35-23.2Q33.4-23.2 32.52-22.18 31.65-21.15 31.65-18.6L31.65-18.6 31.65-6.25Q31.65-3.65 32.52-2.63 33.4-1.6 35.35-1.6ZM53.15 0.45L53.15 0.45Q50.7 0.45 49.15-0.13 47.6-0.7 46.9-2.23 46.2-3.75 46.2-6.7L46.2-6.7 46.2-18.9Q46.2-22.55 47.77-23.88 49.35-25.2 53-25.2L53-25.2Q56.55-25.2 58.12-23.9 59.7-22.6 59.7-19.1L59.7-19.1 59.7-15.85 56.6-15.85 56.6-19.2Q56.6-21.35 55.9-22.33 55.2-23.3 53-23.3L53-23.3Q50.8-23.3 50.05-22.33 49.3-21.35 49.3-19.2L49.3-19.2 49.3-5.9Q49.3-3.5 50.05-2.53 50.8-1.55 53.1-1.55L53.1-1.55Q55.2-1.55 55.9-2.5 56.6-3.45 56.6-5.9L56.6-5.9 56.6-9.25 59.7-9.25 59.7-6.7Q59.7-3.85 59-2.3 58.3-0.75 56.85-0.15 55.4 0.45 53.15 0.45ZM67.24 0L64.14 0 64.14-31.5 67.09-31.5 67.09-22.7Q67.69-23.85 68.89-24.53 70.09-25.2 71.94-25.2L71.94-25.2Q74.59-25.2 75.82-24.28 77.04-23.35 77.39-21.88 77.74-20.4 77.74-18.65L77.74-18.65 77.74 0 74.64 0 74.64-18.2Q74.64-18.95 74.59-19.78 74.54-20.6 74.22-21.3 73.89-22 73.14-22.48 72.39-22.95 70.94-22.95L70.94-22.95Q69.64-22.95 68.82-22.53 67.99-22.1 67.62-21.55 67.24-21 67.24-20.6L67.24-20.6 67.24 0ZM85.69 0L82.64 0 82.64-24.75 85.69-24.75 85.69 0ZM84.19-27.8L84.19-27.8Q83.44-27.8 82.92-28.33 82.39-28.85 82.39-29.55L82.39-29.55Q82.39-30.3 82.92-30.78 83.44-31.25 84.19-31.25L84.19-31.25Q84.89-31.25 85.44-30.78 85.99-30.3 85.99-29.55L85.99-29.55Q85.99-28.85 85.44-28.33 84.89-27.8 84.19-27.8Z" opacity="1" transform="matrix(1,0,0,1,0,0)" fill="#1a314d" class="wordmark-text-0" data-fill-palette-color="primary" id="text-0"></path></svg></g></svg></g><g transform="matrix(1,0,0,1,163.31020800000002,188.53499463686182)"><svg viewBox="0 0 232.20979199999996 19.10416023395278" height="19.10416023395278" width="232.20979199999996"><g transform="matrix(1,0,0,1,0,0)"><svg width="232.20979199999996" viewBox="2.0181819052480003 -32.4 400.47329957617995 32.949999999999996" height="19.10416023395278" data-palette-color="#fcbf44"><path d="M8-32.1L8-32.1Q11.45-32.1 15.6-32.25 19.75-32.4 23.7-32.4L23.7-32.4Q23.95-30.55 24.35-29 24.75-27.45 25.1-25.8L25.1-25.8Q24.85-25.55 24.25-25.55L24.25-25.55Q23.6-25.55 23.55-25.9L23.55-25.9Q22.75-28.85 21.3-29.65 19.85-30.45 17.9-30.45L17.9-30.45 13.7-30.45Q13.4-30.45 12.6-30.43 11.8-30.4 11.1-30.3 10.4-30.2 10.3-29.95L10.3-29.95Q10.15-29.45 10.13-28.65 10.1-27.85 10.1-27L10.1-27Q10.1-26.65 10.1-26.45L10.1-26.45 10.1-17.35Q10.1-17.15 10.75-17.1 11.4-17.05 12.2-17.05L12.2-17.05 14.75-17.05Q16.5-17.05 17.48-17.15 18.45-17.25 18.9-17.6 19.35-17.95 19.6-18.65 19.85-19.35 20.15-20.55L20.15-20.55Q20.2-20.9 20.85-20.9L20.85-20.9Q21.45-20.9 21.7-20.65L21.7-20.65 21.7-11.45Q21.5-11.25 20.9-11.25L20.9-11.25Q20.3-11.25 20.15-11.6L20.15-11.6Q19.8-13 19.58-13.63 19.35-14.25 19.18-14.48 19-14.7 18.75-14.85L18.75-14.85Q18.5-15.05 17.6-15.13 16.7-15.2 15.63-15.23 14.55-15.25 13.6-15.25L13.6-15.25Q12.95-15.25 12.13-15.23 11.3-15.2 10.7-15.13 10.1-15.05 10.1-14.8L10.1-14.8 10.1-5.65Q10.1-5.5 10.1-5.35 10.1-5.2 10.1-5.05L10.1-5.05Q10.1-4.1 10.13-3.33 10.15-2.55 10.3-2.05L10.3-2.05Q10.4-1.8 11.23-1.6 12.05-1.4 12.98-1.33 13.9-1.25 14.2-1.25L14.2-1.25Q14.35-1.05 14.38-0.55 14.4-0.05 14.2 0.15L14.2 0.15Q12.7 0.05 11.08-0.03 9.45-0.1 8-0.1L8-0.1Q6.3-0.1 4.98 0.03 3.65 0.15 2.2 0.15L2.2 0.15Q2-0.05 2.02-0.55 2.05-1.05 2.2-1.25L2.2-1.25Q2.5-1.25 3.3-1.33 4.1-1.4 4.83-1.6 5.55-1.8 5.6-2.05L5.6-2.05Q5.8-2.65 5.83-3.6 5.85-4.55 5.85-5.65L5.85-5.65 5.85-26.5Q5.85-27.6 5.83-28.58 5.8-29.55 5.6-30.15L5.6-30.15Q5.55-30.45 4.83-30.6 4.1-30.75 3.3-30.83 2.5-30.9 2.2-30.9L2.2-30.9Q2.05-31.1 2.02-31.6 2-32.1 2.2-32.3L2.2-32.3Q3.7-32.25 5.15-32.18 6.6-32.1 8-32.1ZM40.05-21.35L40.05-21.35Q41-21.35 41.85-20.93 42.7-20.5 43.05-19.9L43.05-19.9Q43.15-19.7 43.2-19.35 43.25-19 43.25-18.6L43.25-18.6Q43.25-17.25 42.62-16.65 42-16.05 41.6-16.05L41.6-16.05Q41.1-16.05 40.65-16.4 40.2-16.75 39.8-17L39.8-17Q39.45-17.25 39.07-17.43 38.7-17.6 38-17.6L38-17.6Q36.95-17.6 36.07-16.73 35.2-15.85 34.65-14.8 34.1-13.75 34.1-13.2L34.1-13.2 34.1-5.65Q34.1-4.55 34.12-3.6 34.15-2.65 34.35-2.05L34.35-2.05Q34.45-1.8 35.35-1.6 36.25-1.4 37.25-1.33 38.25-1.25 38.55-1.25L38.55-1.25Q38.7-1.05 38.72-0.55 38.75-0.05 38.55 0.15L38.55 0.15Q37.05 0.05 35.5-0.03 33.95-0.1 32.5-0.1L32.5-0.1Q31.1-0.1 29.8-0.03 28.5 0.05 27 0.15L27 0.15Q26.8-0.05 26.82-0.55 26.85-1.05 27-1.25L27-1.25Q27.3-1.25 28.02-1.33 28.75-1.4 29.4-1.6 30.05-1.8 30.1-2.05L30.1-2.05Q30.3-2.65 30.32-3.6 30.35-4.55 30.35-5.65L30.35-5.65 30.35-14.75Q30.35-15.25 30.32-16.05 30.3-16.85 30.1-17.3L30.1-17.3Q29.95-17.75 29.25-17.93 28.55-18.1 27.85-18.13 27.15-18.15 26.95-18.15L26.95-18.15Q26.9-18.25 26.85-18.75 26.8-19.25 26.95-19.45L26.95-19.45Q28.85-19.7 30.65-20.2 32.45-20.7 33.9-21.5L33.9-21.5Q34.1-21.5 34.27-21.2 34.45-20.9 34.45-20.7L34.45-20.7Q34.45-20.55 34.35-19.55 34.25-18.55 34.17-17.53 34.1-16.5 34.1-16.2L34.1-16.2Q34.1-16.05 34.17-16.05 34.25-16.05 34.3-16.1L34.3-16.1Q34.8-17.15 35.72-18.38 36.65-19.6 37.8-20.48 38.95-21.35 40.05-21.35ZM56.14-21.45L56.14-21.45Q59.39-21.45 61.72-20.05 64.05-18.65 65.32-16.25 66.59-13.85 66.59-10.8L66.59-10.8Q66.59-7.65 65.25-5.13 63.89-2.6 61.55-1.13 59.2 0.35 56.24 0.35L56.24 0.35Q53.05 0.35 50.67-1.07 48.29-2.5 47.02-4.93 45.74-7.35 45.74-10.4L45.74-10.4Q45.74-13.55 47.12-16.05 48.49-18.55 50.84-20 53.2-21.45 56.14-21.45ZM55.59-19.8L55.59-19.8Q53.55-19.8 52.3-18.57 51.05-17.35 50.49-15.43 49.95-13.5 49.95-11.4L49.95-11.4Q49.95-9.05 50.72-6.7 51.49-4.35 53.02-2.8 54.55-1.25 56.74-1.25L56.74-1.25Q58.84-1.25 60.07-2.48 61.3-3.7 61.84-5.65 62.39-7.6 62.39-9.65L62.39-9.65Q62.39-12.05 61.59-14.38 60.8-16.7 59.3-18.25 57.8-19.8 55.59-19.8ZM84.19-21.4L84.19-21.4Q86.39-21.4 87.77-20.48 89.14-19.55 89.74-17.35L89.74-17.35Q91.34-18.8 93.27-20.1 95.19-21.4 96.94-21.4L96.94-21.4Q99.59-21.4 100.94-20.3 102.29-19.2 102.77-16.9 103.24-14.6 103.24-11.05L103.24-11.05 103.24-5.65Q103.24-4.55 103.27-3.6 103.29-2.65 103.49-2.05L103.49-2.05Q103.59-1.8 104.22-1.6 104.84-1.4 105.54-1.33 106.24-1.25 106.54-1.25L106.54-1.25Q106.69-1.05 106.72-0.55 106.74-0.05 106.54 0.15L106.54 0.15Q105.04 0.05 103.92-0.03 102.79-0.1 101.34-0.1L101.34-0.1Q99.94-0.1 98.79-0.03 97.64 0.05 96.14 0.15L96.14 0.15Q95.94-0.05 95.97-0.55 95.99-1.05 96.14-1.25L96.14-1.25Q96.44-1.25 97.17-1.33 97.89-1.4 98.54-1.6 99.19-1.8 99.24-2.05L99.24-2.05Q99.39-2.55 99.42-3.33 99.44-4.1 99.44-5.05L99.44-5.05Q99.44-5.2 99.44-5.35 99.44-5.5 99.44-5.65L99.44-5.65 99.44-10.9Q99.44-13.35 99.12-15.05 98.79-16.75 97.84-17.65 96.89-18.55 94.89-18.55L94.89-18.55Q93.69-18.55 92.59-17.93 91.49-17.3 90.79-16.63 90.09-15.95 90.09-15.75L90.09-15.75Q90.09-15.7 90.12-15.48 90.14-15.25 90.14-15.15L90.14-15.15Q90.24-14.45 90.29-13.4 90.34-12.35 90.34-11.65L90.34-11.65 90.34-5.65Q90.34-4.55 90.37-3.6 90.39-2.65 90.59-2.05L90.59-2.05Q90.69-1.8 91.32-1.6 91.94-1.4 92.64-1.33 93.34-1.25 93.64-1.25L93.64-1.25Q93.79-1.05 93.82-0.55 93.84-0.05 93.64 0.15L93.64 0.15Q92.14 0.05 91.02-0.03 89.89-0.1 88.44-0.1L88.44-0.1Q87.04-0.1 85.89-0.03 84.74 0.05 83.24 0.15L83.24 0.15Q83.04-0.05 83.07-0.55 83.09-1.05 83.24-1.25L83.24-1.25Q83.54-1.25 84.27-1.33 84.99-1.4 85.64-1.6 86.29-1.8 86.34-2.05L86.34-2.05Q86.54-2.65 86.57-3.6 86.59-4.55 86.59-5.65L86.59-5.65 86.59-10.65Q86.59-15.1 85.62-16.82 84.64-18.55 81.99-18.55L81.99-18.55Q80.89-18.55 79.84-18 78.79-17.45 78.12-16.82 77.44-16.2 77.44-15.85L77.44-15.85 77.44-5.65Q77.44-4.55 77.47-3.6 77.49-2.65 77.69-2.05L77.69-2.05Q77.79-1.8 78.42-1.6 79.04-1.4 79.74-1.33 80.44-1.25 80.74-1.25L80.74-1.25Q80.89-1.05 80.92-0.55 80.94-0.05 80.74 0.15L80.74 0.15Q79.24 0.05 78.12-0.03 76.99-0.1 75.54-0.1L75.54-0.1Q74.14-0.1 72.99-0.03 71.84 0.05 70.34 0.15L70.34 0.15Q70.14-0.05 70.17-0.55 70.19-1.05 70.34-1.25L70.34-1.25Q70.64-1.25 71.37-1.33 72.09-1.4 72.74-1.6 73.39-1.8 73.44-2.05L73.44-2.05Q73.64-2.65 73.67-3.6 73.69-4.55 73.69-5.65L73.69-5.65 73.69-14.55Q73.69-15.05 73.67-15.95 73.64-16.85 73.44-17.3L73.44-17.3Q73.29-17.75 72.59-17.93 71.89-18.1 71.19-18.13 70.49-18.15 70.29-18.15L70.29-18.15Q70.24-18.25 70.19-18.75 70.14-19.25 70.29-19.45L70.29-19.45Q72.19-19.7 73.99-20.2 75.79-20.7 77.24-21.5L77.24-21.5Q77.44-21.5 77.62-21.2 77.79-20.9 77.79-20.7L77.79-20.7Q77.79-20.55 77.72-20 77.64-19.45 77.57-18.9 77.49-18.35 77.49-18.15L77.49-18.15Q77.49-17.95 77.59-17.95L77.59-17.95Q77.64-17.95 77.74-18.05L77.74-18.05Q78.34-18.6 79.34-19.38 80.34-20.15 81.62-20.78 82.89-21.4 84.19-21.4ZM127.49-32.1L127.49-32.1Q129.09-32.1 130.19-32.18 131.29-32.25 132.74-32.3L132.74-32.3Q132.84-32.1 132.81-31.53 132.79-30.95 132.64-30.9L132.64-30.9Q132.44-30.9 131.74-30.78 131.04-30.65 130.39-30.33 129.74-30 129.74-29.3L129.74-29.3Q129.74-29.1 129.94-28.25 130.14-27.4 130.49-26.1L130.49-26.1Q131.04-24.1 131.99-20.98 132.94-17.85 134.04-14.28 135.14-10.7 136.14-7.25L136.14-7.25Q136.99-10.1 138.04-13.4 139.09-16.7 140.14-20 141.19-23.3 142.09-26.1 142.99-28.9 143.54-30.7L143.54-30.7Q143.79-31.4 144.34-31.85 144.89-32.3 145.29-32.3L145.29-32.3Q145.49-32.3 145.84-31.55L145.84-31.55Q145.94-31.25 146.46-29.6 146.99-27.95 147.79-25.38 148.59-22.8 149.59-19.73 150.59-16.65 151.64-13.45 152.69-10.25 153.64-7.35L153.64-7.35Q154.44-10.15 155.09-12.4 155.74-14.65 156.31-16.68 156.89-18.7 157.49-20.85 158.09-23 158.74-25.6L158.74-25.6Q158.99-26.45 159.14-27.4 159.29-28.35 159.29-29L159.29-29Q159.29-29.8 158.59-30.2 157.89-30.6 157.09-30.75 156.29-30.9 155.99-30.9L155.99-30.9Q155.79-31 155.79-31.55 155.79-32.1 155.99-32.3L155.99-32.3Q157.34-32.25 158.64-32.18 159.94-32.1 161.29-32.1L161.29-32.1Q162.44-32.1 163.06-32.13 163.69-32.15 164.31-32.2 164.94-32.25 165.89-32.3L165.89-32.3Q165.99-32.1 165.94-31.5 165.89-30.9 165.79-30.9L165.79-30.9Q165.49-30.9 164.46-30.6 163.44-30.3 162.69-29.65L162.69-29.65Q162.19-29.2 161.79-28.33 161.39-27.45 160.94-25.95L160.94-25.95Q159.59-21.35 158.49-17.45 157.39-13.55 156.31-9.75 155.24-5.95 153.94-1.55L153.94-1.55Q153.74-0.9 153.16-0.4 152.59 0.1 152.09 0.1L152.09 0.1Q151.94 0.1 151.79-0.23 151.64-0.55 151.59-0.7L151.59-0.7Q150.99-2.45 150.19-4.9 149.39-7.35 148.49-10.08 147.59-12.8 146.74-15.4 145.89-18 145.19-20.13 144.49-22.25 144.06-23.53 143.64-24.8 143.64-24.8L143.64-24.8 143.64-24.8Q142.59-21.45 141.69-18.57 140.79-15.7 139.91-13.03 139.04-10.35 138.16-7.58 137.29-4.8 136.29-1.55L136.29-1.55Q136.09-0.9 135.49-0.4 134.89 0.1 134.39 0.1L134.39 0.1Q134.24 0.1 134.11-0.23 133.99-0.55 133.94-0.7L133.94-0.7Q132.54-5.25 131.31-9.18 130.09-13.1 128.84-17.15 127.59-21.2 126.09-26L126.09-26Q125.64-27.45 125.34-28.38 125.04-29.3 124.34-29.95L124.34-29.95Q123.84-30.45 122.91-30.68 121.99-30.9 121.54-30.9L121.54-30.9Q121.49-30.9 121.49-31.58 121.49-32.25 121.54-32.3L121.54-32.3Q123.24-32.25 124.51-32.18 125.79-32.1 127.49-32.1ZM175.39-21.45L175.39-21.45Q178.64-21.45 180.96-20.05 183.29-18.65 184.56-16.25 185.84-13.85 185.84-10.8L185.84-10.8Q185.84-7.65 184.49-5.13 183.14-2.6 180.79-1.13 178.44 0.35 175.49 0.35L175.49 0.35Q172.29 0.35 169.91-1.07 167.54-2.5 166.26-4.93 164.99-7.35 164.99-10.4L164.99-10.4Q164.99-13.55 166.36-16.05 167.74-18.55 170.09-20 172.44-21.45 175.39-21.45ZM174.84-19.8L174.84-19.8Q172.79-19.8 171.54-18.57 170.29-17.35 169.74-15.43 169.19-13.5 169.19-11.4L169.19-11.4Q169.19-9.05 169.96-6.7 170.74-4.35 172.26-2.8 173.79-1.25 175.99-1.25L175.99-1.25Q178.09-1.25 179.31-2.48 180.54-3.7 181.09-5.65 181.64-7.6 181.64-9.65L181.64-9.65Q181.64-12.05 180.84-14.38 180.04-16.7 178.54-18.25 177.04-19.8 174.84-19.8ZM202.63-21.35L202.63-21.35Q203.58-21.35 204.43-20.93 205.28-20.5 205.63-19.9L205.63-19.9Q205.73-19.7 205.78-19.35 205.83-19 205.83-18.6L205.83-18.6Q205.83-17.25 205.21-16.65 204.58-16.05 204.18-16.05L204.18-16.05Q203.68-16.05 203.23-16.4 202.78-16.75 202.38-17L202.38-17Q202.03-17.25 201.66-17.43 201.28-17.6 200.58-17.6L200.58-17.6Q199.53-17.6 198.66-16.73 197.78-15.85 197.23-14.8 196.68-13.75 196.68-13.2L196.68-13.2 196.68-5.65Q196.68-4.55 196.71-3.6 196.73-2.65 196.93-2.05L196.93-2.05Q197.03-1.8 197.93-1.6 198.83-1.4 199.83-1.33 200.83-1.25 201.13-1.25L201.13-1.25Q201.28-1.05 201.31-0.55 201.33-0.05 201.13 0.15L201.13 0.15Q199.63 0.05 198.08-0.03 196.53-0.1 195.08-0.1L195.08-0.1Q193.68-0.1 192.38-0.03 191.08 0.05 189.58 0.15L189.58 0.15Q189.38-0.05 189.41-0.55 189.43-1.05 189.58-1.25L189.58-1.25Q189.88-1.25 190.61-1.33 191.33-1.4 191.98-1.6 192.63-1.8 192.68-2.05L192.68-2.05Q192.88-2.65 192.91-3.6 192.93-4.55 192.93-5.65L192.93-5.65 192.93-14.75Q192.93-15.25 192.91-16.05 192.88-16.85 192.68-17.3L192.68-17.3Q192.53-17.75 191.83-17.93 191.13-18.1 190.43-18.13 189.73-18.15 189.53-18.15L189.53-18.15Q189.48-18.25 189.43-18.75 189.38-19.25 189.53-19.45L189.53-19.45Q191.43-19.7 193.23-20.2 195.03-20.7 196.48-21.5L196.48-21.5Q196.68-21.5 196.86-21.2 197.03-20.9 197.03-20.7L197.03-20.7Q197.03-20.55 196.93-19.55 196.83-18.55 196.76-17.53 196.68-16.5 196.68-16.2L196.68-16.2Q196.68-16.05 196.76-16.05 196.83-16.05 196.88-16.1L196.88-16.1Q197.38-17.15 198.31-18.38 199.23-19.6 200.38-20.48 201.53-21.35 202.63-21.35ZM222.28-21.4L222.28-21.4Q224.93-21.4 226.28-20.3 227.63-19.2 228.11-16.9 228.58-14.6 228.58-11.05L228.58-11.05 228.58-5.65Q228.58-4.55 228.61-3.6 228.63-2.65 228.83-2.05L228.83-2.05Q228.93-1.8 229.56-1.6 230.18-1.4 230.88-1.33 231.58-1.25 231.88-1.25L231.88-1.25Q232.03-1.05 232.06-0.55 232.08-0.05 231.88 0.15L231.88 0.15Q230.38 0.05 229.25-0.03 228.13-0.1 226.68-0.1L226.68-0.1Q225.28-0.1 224.13-0.03 222.98 0.05 221.48 0.15L221.48 0.15Q221.28-0.05 221.31-0.55 221.33-1.05 221.48-1.25L221.48-1.25Q221.78-1.25 222.5-1.33 223.23-1.4 223.88-1.6 224.53-1.8 224.58-2.05L224.58-2.05Q224.78-2.65 224.81-3.6 224.83-4.55 224.83-5.65L224.83-5.65 224.83-10.55Q224.83-13.6 224.43-15.33 224.03-17.05 222.98-17.8 221.93-18.55 220.03-18.55L220.03-18.55Q219.13-18.55 218.06-17.98 216.98-17.4 216.18-16.75 215.38-16.1 215.38-15.85L215.38-15.85 215.38-5.65Q215.38-4.55 215.41-3.6 215.43-2.65 215.63-2.05L215.63-2.05Q215.73-1.8 216.35-1.6 216.98-1.4 217.68-1.33 218.38-1.25 218.68-1.25L218.68-1.25Q218.83-1.05 218.85-0.55 218.88-0.05 218.68 0.15L218.68 0.15Q217.18 0.05 216.06-0.03 214.93-0.1 213.48-0.1L213.48-0.1Q212.08-0.1 210.93-0.03 209.78 0.05 208.28 0.15L208.28 0.15Q208.08-0.05 208.1-0.55 208.13-1.05 208.28-1.25L208.28-1.25Q208.58-1.25 209.31-1.33 210.03-1.4 210.68-1.6 211.33-1.8 211.38-2.05L211.38-2.05Q211.58-2.65 211.6-3.6 211.63-4.55 211.63-5.65L211.63-5.65 211.63-14.55Q211.63-15.05 211.6-15.95 211.58-16.85 211.38-17.3L211.38-17.3Q211.23-17.75 210.53-17.93 209.83-18.1 209.13-18.13 208.43-18.15 208.23-18.15L208.23-18.15Q208.18-18.25 208.13-18.75 208.08-19.25 208.23-19.45L208.23-19.45Q210.13-19.7 211.93-20.2 213.73-20.7 215.18-21.5L215.18-21.5Q215.38-21.5 215.56-21.2 215.73-20.9 215.73-20.7L215.73-20.7Q215.73-20.55 215.66-19.93 215.58-19.3 215.5-18.7 215.43-18.1 215.43-17.9L215.43-17.9Q215.43-17.7 215.53-17.7L215.53-17.7Q215.58-17.7 215.68-17.8L215.68-17.8Q216.18-18.35 217.31-19.2 218.43-20.05 219.78-20.73 221.13-21.4 222.28-21.4ZM254.88-27.5L254.88-21.1 261.18-21.1Q261.43-21.1 261.43-20.55L261.43-20.55Q261.43-19.8 260.73-19.1L260.73-19.1 254.88-19.1 254.88-6.3Q254.88-2.3 258.13-2.3L258.13-2.3Q259.23-2.3 260.13-2.75 261.03-3.2 261.28-3.4L261.28-3.4Q261.43-3.35 261.43-3.1L261.43-3.1Q261.43-2.55 261.23-2.35L261.23-2.35Q260.88-1.95 260.15-1.3 259.43-0.65 258.43-0.15 257.43 0.35 256.23 0.35L256.23 0.35Q254.98 0.35 253.8-0.1 252.63-0.55 251.88-1.7 251.13-2.85 251.13-4.95L251.13-4.95 251.13-19.1 248.28-19.1Q248.18-19.1 248.13-19.28 248.08-19.45 248.08-19.55L248.08-19.55Q248.08-19.65 248.38-20.03 248.68-20.4 249-20.75 249.33-21.1 249.33-21.1L249.33-21.1 251.13-21.1 251.13-24.15Q251.63-24.7 252.3-25.43 252.98-26.15 253.53-26.78 254.08-27.4 254.13-27.45L254.13-27.45Q254.33-27.65 254.6-27.65 254.88-27.65 254.88-27.5L254.88-27.5ZM274.62-21.45L274.62-21.45Q277.87-21.45 280.2-20.05 282.52-18.65 283.8-16.25 285.07-13.85 285.07-10.8L285.07-10.8Q285.07-7.65 283.72-5.13 282.37-2.6 280.02-1.13 277.67 0.35 274.72 0.35L274.72 0.35Q271.52 0.35 269.15-1.07 266.77-2.5 265.5-4.93 264.22-7.35 264.22-10.4L264.22-10.4Q264.22-13.55 265.6-16.05 266.97-18.55 269.32-20 271.67-21.45 274.62-21.45ZM274.07-19.8L274.07-19.8Q272.02-19.8 270.77-18.57 269.52-17.35 268.97-15.43 268.42-13.5 268.42-11.4L268.42-11.4Q268.42-9.05 269.2-6.7 269.97-4.35 271.5-2.8 273.02-1.25 275.22-1.25L275.22-1.25Q277.32-1.25 278.55-2.48 279.77-3.7 280.32-5.65 280.87-7.6 280.87-9.65L280.87-9.65Q280.87-12.05 280.07-14.38 279.27-16.7 277.77-18.25 276.27-19.8 274.07-19.8ZM307.42-32.1L307.42-32.1Q309.02-32.1 310.12-32.18 311.22-32.25 312.67-32.3L312.67-32.3Q312.77-32.1 312.74-31.53 312.72-30.95 312.57-30.9L312.57-30.9Q312.37-30.9 311.67-30.78 310.97-30.65 310.32-30.33 309.67-30 309.67-29.3L309.67-29.3Q309.67-29.1 309.87-28.25 310.07-27.4 310.42-26.1L310.42-26.1Q310.97-24.1 311.92-20.98 312.87-17.85 313.97-14.28 315.07-10.7 316.07-7.25L316.07-7.25Q316.92-10.1 317.97-13.4 319.02-16.7 320.07-20 321.12-23.3 322.02-26.1 322.92-28.9 323.47-30.7L323.47-30.7Q323.72-31.4 324.27-31.85 324.82-32.3 325.22-32.3L325.22-32.3Q325.42-32.3 325.77-31.55L325.77-31.55Q325.87-31.25 326.39-29.6 326.92-27.95 327.72-25.38 328.52-22.8 329.52-19.73 330.52-16.65 331.57-13.45 332.62-10.25 333.57-7.35L333.57-7.35Q334.37-10.15 335.02-12.4 335.67-14.65 336.24-16.68 336.82-18.7 337.42-20.85 338.02-23 338.67-25.6L338.67-25.6Q338.92-26.45 339.07-27.4 339.22-28.35 339.22-29L339.22-29Q339.22-29.8 338.52-30.2 337.82-30.6 337.02-30.75 336.22-30.9 335.92-30.9L335.92-30.9Q335.72-31 335.72-31.55 335.72-32.1 335.92-32.3L335.92-32.3Q337.27-32.25 338.57-32.18 339.87-32.1 341.22-32.1L341.22-32.1Q342.37-32.1 342.99-32.13 343.62-32.15 344.24-32.2 344.87-32.25 345.82-32.3L345.82-32.3Q345.92-32.1 345.87-31.5 345.82-30.9 345.72-30.9L345.72-30.9Q345.42-30.9 344.39-30.6 343.37-30.3 342.62-29.65L342.62-29.65Q342.12-29.2 341.72-28.33 341.32-27.45 340.87-25.95L340.87-25.95Q339.52-21.35 338.42-17.45 337.32-13.55 336.24-9.75 335.17-5.95 333.87-1.55L333.87-1.55Q333.67-0.9 333.09-0.4 332.52 0.1 332.02 0.1L332.02 0.1Q331.87 0.1 331.72-0.23 331.57-0.55 331.52-0.7L331.52-0.7Q330.92-2.45 330.12-4.9 329.32-7.35 328.42-10.08 327.52-12.8 326.67-15.4 325.82-18 325.12-20.13 324.42-22.25 323.99-23.53 323.57-24.8 323.57-24.8L323.57-24.8 323.57-24.8Q322.52-21.45 321.62-18.57 320.72-15.7 319.84-13.03 318.97-10.35 318.09-7.58 317.22-4.8 316.22-1.55L316.22-1.55Q316.02-0.9 315.42-0.4 314.82 0.1 314.32 0.1L314.32 0.1Q314.17 0.1 314.04-0.23 313.92-0.55 313.87-0.7L313.87-0.7Q312.47-5.25 311.24-9.18 310.02-13.1 308.77-17.15 307.52-21.2 306.02-26L306.02-26Q305.57-27.45 305.27-28.38 304.97-29.3 304.27-29.95L304.27-29.95Q303.77-30.45 302.84-30.68 301.92-30.9 301.47-30.9L301.47-30.9Q301.42-30.9 301.42-31.58 301.42-32.25 301.47-32.3L301.47-32.3Q303.17-32.25 304.44-32.18 305.72-32.1 307.42-32.1ZM355.32-21.45L355.32-21.45Q358.57-21.45 360.89-20.05 363.22-18.65 364.49-16.25 365.77-13.85 365.77-10.8L365.77-10.8Q365.77-7.65 364.42-5.13 363.07-2.6 360.72-1.13 358.37 0.35 355.42 0.35L355.42 0.35Q352.22 0.35 349.84-1.07 347.47-2.5 346.19-4.93 344.92-7.35 344.92-10.4L344.92-10.4Q344.92-13.55 346.29-16.05 347.67-18.55 350.02-20 352.37-21.45 355.32-21.45ZM354.77-19.8L354.77-19.8Q352.72-19.8 351.47-18.57 350.22-17.35 349.67-15.43 349.12-13.5 349.12-11.4L349.12-11.4Q349.12-9.05 349.89-6.7 350.67-4.35 352.19-2.8 353.72-1.25 355.92-1.25L355.92-1.25Q358.02-1.25 359.24-2.48 360.47-3.7 361.02-5.65 361.57-7.6 361.57-9.65L361.57-9.65Q361.57-12.05 360.77-14.38 359.97-16.7 358.47-18.25 356.97-19.8 354.77-19.8ZM372.21-20.75L372.21-20.75Q373.61-20.75 374.64-20.85 375.66-20.95 377.11-21L377.11-21Q377.21-20.8 377.19-20.25 377.16-19.7 377.01-19.6L377.01-19.6Q376.81-19.6 376.21-19.53 375.61-19.45 375.09-19.23 374.56-19 374.56-18.45L374.56-18.45Q374.56-18.35 374.81-17.7L374.81-17.7Q375.26-16.55 376.51-13.55 377.76-10.55 379.81-5.7L379.81-5.7Q381.71-10.45 382.74-13.03 383.76-15.6 383.76-15.95L383.76-15.95Q383.76-16.2 383.44-17.07 383.11-17.95 382.61-18.65L382.61-18.65Q382.21-19.25 381.56-19.43 380.91-19.6 380.46-19.6L380.46-19.6Q380.26-19.7 380.26-20.25 380.26-20.8 380.46-21L380.46-21Q381.46-20.95 382.09-20.9 382.71-20.85 383.31-20.8 383.91-20.75 384.91-20.75L384.91-20.75Q386.31-20.75 387.41-20.85 388.51-20.95 389.96-21L389.96-21Q390.06-20.8 390.06-20.28 390.06-19.75 389.91-19.6L389.91-19.6Q387.51-19.6 387.51-18L387.51-18Q387.51-17.75 387.61-17.5L387.61-17.5Q387.91-16.55 388.99-13.8 390.06-11.05 392.06-5.85L392.06-5.85Q393.51-9.4 394.69-12.33 395.86-15.25 396.36-16.8L396.36-16.8Q396.51-17.2 396.56-17.5 396.61-17.8 396.61-17.95L396.61-17.95Q396.61-18.65 396.11-18.98 395.61-19.3 394.94-19.43 394.26-19.55 393.71-19.6L393.71-19.6Q393.56-19.7 393.54-20.25 393.51-20.8 393.71-21L393.71-21Q394.71-20.95 395.26-20.9 395.81-20.85 396.39-20.8 396.96-20.75 397.96-20.75L397.96-20.75Q399.36-20.75 400.16-20.85 400.96-20.95 402.41-21L402.41-21Q402.46-20.9 402.49-20.35 402.51-19.8 402.26-19.6L402.26-19.6Q402.06-19.6 401.39-19.45 400.71-19.3 399.99-18.93 399.26-18.55 398.96-17.8L398.96-17.8Q397.61-14.4 396.54-11.73 395.46-9.05 394.39-6.38 393.31-3.7 391.86-0.3L391.86-0.3Q391.76 0 391.44 0.28 391.11 0.55 390.86 0.55L390.86 0.55Q390.36 0.55 390.26 0.35L390.26 0.35 384.86-13.75 379.56-0.4Q379.51-0.3 379.14 0.13 378.76 0.55 378.36 0.55L378.36 0.55Q378.01 0.55 377.91 0.35L377.91 0.35Q376.76-2.5 375.84-4.78 374.91-7.05 374.04-9.18 373.16-11.3 372.19-13.53 371.21-15.75 370.01-18.5L370.01-18.5Q369.66-19.3 368.74-19.45 367.81-19.6 367.36-19.6L367.36-19.6Q367.26-19.85 367.26-20.33 367.26-20.8 367.36-21L367.36-21Q368.86-20.95 369.79-20.85 370.71-20.75 372.21-20.75Z" opacity="1" transform="matrix(1,0,0,1,0,0)" fill="#fcbf44" class="slogan-text-1" data-fill-palette-color="secondary" id="text-1"></path></svg></g></svg></g></svg></g></svg></g><g transform="matrix(1,0,0,1,431.5279698933494,37.17698237572759)"><svg viewBox="0 0 244.43136 133.2851901193594" height="133.2851901193594" width="244.43136"><g><svg xmlns="http://www.w3.org/2000/svg" xmlns:xlink="http://www.w3.org/1999/xlink" version="1.1" x="0" y="0" viewBox="1.72 19.4 96.46300181202604 52.6" enable-background="new 0 0 100 100" xml:space="preserve" height="133.2851901193594" width="244.43136" class="icon-icon-0" data-fill-palette-color="accent" id="icon-0"><path fill="#0f6cd9" d="M97.189 50.816A1 1 0 0 0 96.739 50.79C96.831 48.775 96.871 46.535 96.871 44.056 96.871 38.966 97.268 32.908 97.771 27.3 97.771 27.3 74.097 27.101 57.765 19.4 56.533 26.611 24.109 32.312 21.458 32.762 21.444 32.749 21.418 32.749 21.405 32.749 21.405 32.749 20.967 32.709 20.212 32.709 11.277 32.709 1.72 37.627 1.72 51.254 1.72 71.059 20.411 72 20.649 72H64.765C90.705 72 98.183 71.098 98.183 52.155 98.184 51.545 97.771 50.976 97.189 50.816M79.429 28.622C85.877 28.622 91.104 33.849 91.104 40.296 91.104 46.744 85.877 51.971 79.429 51.971 72.982 51.971 67.755 46.744 67.755 40.296S72.981 28.622 79.429 28.622M93.357 63.848C90.322 68.567 83.443 69.042 69.007 69.109 67.655 69.121 66.25 69 64.766 69H20.703C20.663 69 20.557 69.121 20.411 69.108 18.13 68.949 4.371 67.272 4.371 51.14 4.371 36.85 15.453 35.329 20.212 35.329L25.767 60.095C25.899 60.691 26.43 61 27.052 61H65.72C78.325 61 89.461 61.145 95.413 55.842 95.188 59.275 94.577 61.965 93.357 63.848" data-fill-palette-color="accent"></path><polygon fill="#0f6cd9" points="78.988,31.113 81.688,36.582 87.723,37.458 83.356,41.715 84.387,47.726 78.988,44.888   73.59,47.726 74.621,41.715 70.254,37.458 76.289,36.582 " data-fill-palette-color="accent"></polygon></svg></g></svg></g></svg></g><defs></defs></svg><rect width="395.5199999999999" height="121.49464457789503" fill="none" stroke="none" visibility="hidden"></rect></g></svg></g></svg>