<svg xmlns="http://www.w3.org/2000/svg" version="1.1" xmlns:xlink="http://www.w3.org/1999/xlink" xmlns:svgjs="http://svgjs.dev/svgjs" width="2000" height="424" viewBox="0 0 2000 424"><g transform="matrix(1,0,0,1,-1.212120216537528,-0.9846950222211319)"><svg viewBox="0 0 396 84" data-background-color="#ffffff" preserveAspectRatio="xMidYMid meet" height="424" width="2000" xmlns="http://www.w3.org/2000/svg" xmlns:xlink="http://www.w3.org/1999/xlink"><g id="tight-bounds" transform="matrix(1,0,0,1,0.23999980287442213,0.19508108930796197)"><svg viewBox="0 0 395.52 83.60983782138409" height="83.60983782138409" width="395.52"><g><svg viewBox="0 0 784.0893877765654 165.750370523531" height="83.60983782138409" width="395.52"><g><rect width="9.787565732094047" height="165.750370523531" x="353.1599222222357" y="0" fill="#1a314d" opacity="1" stroke-width="0" stroke="transparent" fill-opacity="1" class="rect-yte-0" data-fill-palette-color="primary" rx="1%" id="yte-0" data-palette-color="#1a314d"></rect></g><g transform="matrix(1,0,0,1,388.56938777656546,0.41231435453613585)"><svg viewBox="0 0 395.52 164.92574181445872" height="164.92574181445872" width="395.52"><g id="textblocktransform"><svg viewBox="0 0 395.52 164.92574181445872" height="164.92574181445872" width="395.52" id="textblock"><g><svg viewBox="0 0 395.52 108.5324210094873" height="108.5324210094873" width="395.52"><g transform="matrix(1,0,0,1,0,0)"><svg width="395.52" viewBox="0.99444455556 -37.8 141.38646425595996 38.8" height="108.5324210094873" data-palette-color="#1a314d"><g class="wordmark-text-0" data-fill-palette-color="primary" id="text-0"><path d="M24.7-13.25L32.85-34 32.85-35 35.85-35Q37.3-35 39.3-35.1 41.3-35.2 42.7-35.25L42.7-35.25Q42.85-34.3 42.6-33.5L42.6-33.5Q41.5-33.3 40.5-33.1 39.5-32.9 38.6-32.5L38.6-32.5 41.1-2.5 44.95-1.5Q45.1-0.55 44.7 0.25L44.7 0.25Q43.35 0.15 41.68 0.08 40 0 38.6 0L38.6 0Q37.2 0 35.18 0.08 33.15 0.15 31.75 0.25L31.75 0.25Q31.6-0.7 31.85-1.5L31.85-1.5Q32.95-1.7 34-1.85 35.05-2 35.85-2.5L35.85-2.5 33.75-24.4Q33.7-25.1 33.68-25.8 33.65-26.5 33.65-27.2L33.65-27.2Q33.65-27.75 33.65-28.35 33.65-28.95 33.7-29.5L33.7-29.5 33.55-29.5Q33.2-28.25 32.83-26.98 32.45-25.7 31.95-24.4L31.95-24.4 22.9-1.55Q21.95-1 21.1-1.05L21.1-1.05 11.25-24.4Q10.8-25.55 10.4-26.83 10-28.1 9.6-29.5L9.6-29.5 9.45-29.5 9.3-24.35 8.05-2.45 11.9-1.45Q12.05-0.5 11.65 0.3L11.65 0.3Q10.3 0.2 9.05 0.1 7.8 0 6.4 0L6.4 0Q5 0 3.73 0.08 2.45 0.15 1.05 0.25L1.05 0.25Q0.9-0.7 1.15-1.5L1.15-1.5Q2.15-1.65 3.13-1.9 4.1-2.15 5.05-2.5L5.05-2.5 7.05-32.5 3.2-33.5Q3.05-34.45 3.45-35.25L3.45-35.25Q4.8-35.2 6.48-35.1 8.15-35 9.55-35L9.55-35 12.8-35 12.8-34 20.95-13.25Q21.6-11.7 22-10.3 22.4-8.9 22.75-7.35L22.75-7.35 22.85-7.35Q23.25-8.95 23.7-10.38 24.15-11.8 24.7-13.25L24.7-13.25ZM47.7-12.5L47.7-12.5Q47.7-16.4 49.22-19.45 50.75-22.5 53.6-24.25 56.45-26 60.3-26L60.3-26Q64.2-26 67.02-24.25 69.85-22.5 71.37-19.45 72.9-16.4 72.9-12.5L72.9-12.5Q72.9-8.5 71.37-5.45 69.85-2.4 67.02-0.7 64.2 1 60.3 1L60.3 1Q56.45 1 53.6-0.7 50.75-2.4 49.22-5.45 47.7-8.5 47.7-12.5ZM67.5-11.8L67.5-11.8Q67.5-15.15 66.75-17.88 66-20.6 64.4-22.23 62.8-23.85 60.2-23.85L60.2-23.85Q57.55-23.85 55.97-22.25 54.4-20.65 53.75-18 53.1-15.35 53.1-12.15L53.1-12.15Q53.1-9.25 53.85-6.73 54.6-4.2 56.22-2.68 57.85-1.15 60.4-1.15L60.4-1.15Q63.1-1.15 64.65-2.65 66.2-4.15 66.85-6.6 67.5-9.05 67.5-11.8ZM94.2-17.7L93.55-23Q92.8-23.35 91.72-23.53 90.65-23.7 89.8-23.7L89.8-23.7Q87.15-23.7 85.4-22.28 83.65-20.85 82.77-18.32 81.9-15.8 81.9-12.5L81.9-12.5Q81.9-8.75 82.92-6.4 83.95-4.05 85.67-2.95 87.4-1.85 89.5-1.85L89.5-1.85Q91.15-1.85 92.92-2.48 94.7-3.1 96.4-4.2L96.4-4.2Q96.8-3.95 97-3.63 97.2-3.3 97.3-2.9L97.3-2.9Q95.45-0.95 93.22-0.05 91 0.85 88.75 0.85L88.75 0.85Q85.65 0.85 82.85-0.7 80.05-2.25 78.3-5.25 76.55-8.25 76.55-12.5L76.55-12.5Q76.55-16.9 78.32-19.88 80.1-22.85 83.1-24.38 86.1-25.9 89.65-25.9L89.65-25.9Q91.55-25.9 93.5-25.53 95.45-25.15 97.4-24.3L97.4-24.3Q97.4-20.6 96.4-17.5L96.4-17.5Q96.2-17.45 96-17.45 95.8-17.45 95.6-17.45L95.6-17.45Q95.25-17.45 94.9-17.5 94.55-17.55 94.2-17.7L94.2-17.7ZM108.09-37.25L108.09-22.25 108.34-22.25Q110.59-24.3 112.72-25.15 114.84-26 116.54-26L116.54-26Q120.64-26 122.52-23.85 124.39-21.7 124.39-18.2L124.39-18.2 124.39-2.5 127.99-1.5Q128.14-0.55 127.74 0.25L127.74 0.25Q126.39 0.15 124.84 0.08 123.29 0 121.89 0L121.89 0Q120.49 0 118.84 0.08 117.19 0.15 115.79 0.25L115.79 0.25Q115.64-0.7 115.89-1.5L115.89-1.5Q116.79-1.7 117.69-1.93 118.59-2.15 119.39-2.5L119.39-2.5 119.39-17.45Q119.39-19.55 118.74-20.65 118.09-21.75 116.99-22.13 115.89-22.5 114.54-22.5L114.54-22.5Q112.94-22.5 111.22-21.7 109.49-20.9 108.34-19.6L108.34-19.6 108.34-2.5 111.69-1.5Q111.84-0.55 111.44 0.25L111.44 0.25Q110.09 0.15 108.67 0.08 107.24 0 105.84 0L105.84 0Q104.44 0 102.79 0.08 101.14 0.15 99.74 0.25L99.74 0.25Q99.59-0.7 99.84-1.5L99.84-1.5Q100.79-1.75 101.72-1.95 102.64-2.15 103.34-2.5L103.34-2.5 103.34-34.3 99.19-34.7Q99.04-35.7 99.44-36.45L99.44-36.45Q103.04-37 106.19-37.8L106.19-37.8Q106.69-37.75 107.14-37.63 107.59-37.5 108.09-37.25L108.09-37.25ZM138.99-24.95L138.99-2.5 142.34-1.5Q142.49-0.55 142.09 0.25L142.09 0.25Q140.74 0.15 139.32 0.08 137.89 0 136.49 0L136.49 0Q135.09 0 133.44 0.08 131.79 0.15 130.39 0.25L130.39 0.25Q130.24-0.7 130.49-1.5L130.49-1.5Q131.44-1.75 132.37-1.95 133.29-2.15 133.99-2.5L133.99-2.5 133.99-22 129.84-22.4Q129.69-23.4 130.09-24.15L130.09-24.15Q131.89-24.4 133.72-24.75 135.54-25.1 137.09-25.5L137.09-25.5Q137.59-25.45 138.04-25.33 138.49-25.2 138.99-24.95L138.99-24.95ZM135.64-30.05L135.64-30.05Q134.79-30.05 134.09-30.6 133.39-31.15 132.99-31.95 132.59-32.75 132.59-33.45L132.59-33.45Q132.59-34.1 133.14-34.77 133.69-35.45 134.52-35.93 135.34-36.4 136.14-36.4L136.14-36.4Q137.04-36.4 137.74-35.83 138.44-35.25 138.82-34.48 139.19-33.7 139.19-33L139.19-33Q139.19-32.35 138.67-31.65 138.14-30.95 137.32-30.5 136.49-30.05 135.64-30.05Z" fill="#1a314d" data-fill-palette-color="primary"></path></g></svg></g></svg></g><g transform="matrix(1,0,0,1,0,134.15432083172303)"><svg viewBox="0 0 375.74399999999997 30.77142098273572" height="30.77142098273572" width="375.74399999999997"><g transform="matrix(1,0,0,1,0,0)"><svg width="375.74399999999997" viewBox="1.75 -35.5 451.76 37" height="30.77142098273572" data-palette-color="#fcbf44"><path d="M22.3-35L27.15-35.5 26.65-33.05 26.6-26.5 24.8-26.1 23.5-32.75 11.1-33.15 10.6-19.6 18.95-19.85 19.95-24.65 21.95-23.9 21.45-18.2 21.95-12.15 19.95-12.55 19-17.5 10.6-17 11.1-2.45 15.75-1.5 15.5 0.25 8.35 0 1.75 0.5 1.85-1.25 5.85-2.5 6.35-17.85 5.85-32.5 1.8-33.7 2.05-35.45 8.35-35 22.3-35ZM38.35-24.95L38.15-20.9 38.35-20.9 41.45-24.45 44.85-25.95 48.6-25 47.75-17.55 46-17.9 44.75-23.05 41.5-22 37.95-17.85 37.7-13.15 37.85-8.3 38.05-2.5 43.05-1.5 42.8 0.25 35.55 0 29.45 0.25 29.55-1.5 32.85-2.5 33.1-7.75 33-17.35 32.75-22.55 29.2-22.4 28.95-24.15 35.85-25.5 38.35-24.95ZM53.2-4.55L51.55-9.5 51.55-16.05 54.49-22 60.14-25.75 67-26 73.25-22.25 76.5-16.25 75.89-7.1 72.19-1.2 64.44 1 57.95-0.25 53.2-4.55ZM60.2-23.2L57.05-17.75 56.8-12.15 57.39-6.35 59.55-2.6 64.84-1.3 69.75-3.45 71.19-11.25 70.69-17.75 68.84-21.9 65.19-23.75 60.2-23.2ZM103.74-8.3L104.14-2.45 107.69-1.5 107.44 0.25 101.54 0 95.44 0.25 95.54-1.5 98.84-2.5 99.19-7.75 98.99-18.65 97.64-21.95 93.39-22.7 88.44-20.05 88.34-18.15 88.04-13.15 88.14-8.3 88.39-2.5 92.04-1.5 91.79 0.25 85.89 0 79.79 0.25 79.89-1.5 83.19-2.5 83.54-7.75 83.34-17.35 83.09-22.55 79.54-22.4 79.29-24.15 86.19-25.5 88.69-24.95 88.54-22.6 93.39-25.65 98.49-26 103.09-22.85 103.34-21.5 108.34-25.65 113.44-26 118.04-22.85 118.79-18.85 118.69-8.3 119.09-2.45 122.64-1.5 122.39 0.25 116.49 0 110.39 0.25 110.49-1.5 113.79-2.5 114.14-7.75 113.94-18.65 112.59-21.95 108.34-22.7 103.74-19.35 103.84-18.85 103.74-8.3ZM180.84-32.55L178.79-27.65 171.84-1.8 170.14 1.25 168.49 1.45 166.94-3.15 162.09-16.9 159.34-24.85 151.89-1.8 149.84 1.25 148.19 1.45 147.14-3.15 142.64-17.05 139.54-27.8 137.54-32.6 133.69-33.5 133.94-35.5 140.79-35 147.44-35.5 147.34-33.5 143.84-32.7 144.84-28.4 148.69-12.95 150.64-5.1 150.74-5.1 153.24-13.6 157.99-28.65 156.34-32.5 152.39-33.5 152.64-35.5 159.29-35 165.94-35.5 165.84-33.5 162.39-32.7 163.34-28.4 168.49-12.95 170.39-5.25 170.49-5.25 172.29-13.6 176.49-28.65 177.19-32.65 173.24-33.5 173.49-35.5 179.24-35 184.54-35.5 184.44-33.5 180.84-32.55ZM187.98-4.55L186.33-9.5 186.33-16.05 189.28-22 194.94-25.75 201.78-26 208.03-22.25 211.28-16.25 210.69-7.1 206.98-1.2 199.23 1 192.73-0.25 187.98-4.55ZM194.98-23.2L191.83-17.75 191.58-12.15 192.19-6.35 194.33-2.6 199.63-1.3 204.53-3.45 205.98-11.25 205.48-17.75 203.63-21.9 199.98-23.75 194.98-23.2ZM223.48-24.95L223.28-20.9 223.48-20.9 226.58-24.45 229.98-25.95 233.73-25 232.88-17.55 231.13-17.9 229.88-23.05 226.63-22 223.08-17.85 222.83-13.15 222.98-8.3 223.18-2.5 228.18-1.5 227.93 0.25 220.68 0 214.58 0.25 214.68-1.5 217.98-2.5 218.23-7.75 218.13-17.35 217.88-22.55 214.33-22.4 214.08-24.15 220.98-25.5 223.48-24.95ZM260.58-8.3L260.98-2.45 264.53-1.5 264.28 0.25 258.38 0 252.28 0.25 252.38-1.5 255.68-2.5 256.03-7.75 255.83-18.65 254.48-21.95 250.23-22.7 244.78-19.9 244.68-18.15 244.38-13.15 244.48-8.3 244.73-2.5 248.38-1.5 248.13 0.25 242.23 0 236.13 0.25 236.23-1.5 239.53-2.5 239.88-7.75 239.43-22.55 235.88-22.4 235.63-24.15 242.53-25.5 245.03-24.95 244.88-22.4 250.23-25.65 255.33-26 259.93-22.85 260.68-18.85 260.58-8.3ZM292.58-1.2L289.78 0.5 286.38 1 282.83-0.2 281.23-4.2 281.48-13.5 281.23-21.9 277.78-22.4 277.48-24.15 281.43-25.2 283.23-30.25 285.78-30.25 285.63-24.65 291.68-24.45 291.38-22.25 286.13-21.9 285.93-19.6 286.13-4.45 287.13-1.45 291.83-2.7 292.58-1.2ZM296.47-4.55L294.82-9.5 294.82-16.05 297.77-22 303.42-25.75 310.27-26 316.52-22.25 319.77-16.25 319.17-7.1 315.47-1.2 307.72 1 301.22-0.25 296.47-4.55ZM303.47-23.2L300.32-17.75 300.07-12.15 300.67-6.35 302.82-2.6 308.12-1.3 313.02-3.45 314.47-11.25 313.97-17.75 312.12-21.9 308.47-23.75 303.47-23.2ZM379.57-32.55L377.52-27.65 370.57-1.8 368.87 1.25 367.22 1.45 365.67-3.15 360.82-16.9 358.07-24.85 350.62-1.8 348.57 1.25 346.92 1.45 345.87-3.15 341.37-17.05 338.27-27.8 336.27-32.6 332.42-33.5 332.67-35.5 339.52-35 346.17-35.5 346.07-33.5 342.57-32.7 343.57-28.4 347.42-12.95 349.37-5.1 349.47-5.1 351.97-13.6 356.72-28.65 355.07-32.5 351.12-33.5 351.37-35.5 358.02-35 364.67-35.5 364.57-33.5 361.12-32.7 362.07-28.4 367.22-12.95 369.12-5.25 369.22-5.25 371.02-13.6 375.22-28.65 375.92-32.65 371.97-33.5 372.22-35.5 377.97-35 383.27-35.5 383.17-33.5 379.57-32.55ZM386.72-4.55L385.07-9.5 385.07-16.05 388.02-22 393.67-25.75 400.52-26 406.77-22.25 410.02-16.25 409.42-7.1 405.72-1.2 397.97 1 391.47-0.25 386.72-4.55ZM393.72-23.2L390.57-17.75 390.32-12.15 390.92-6.35 393.07-2.6 398.37-1.3 403.27-3.45 404.72-11.25 404.22-17.75 402.37-21.9 398.72-23.75 393.72-23.2ZM424.91 1.5L417.61-18.2 415.36-22.6 412.01-23.5 412.26-25.25 418.36-25 424.46-25.25 424.36-23.5 420.96-22.5 421.76-19.6 424.46-11.25 426.46-3.95 426.61-3.95 427.96-9.05 431.76-19.8 430.36-22.6 427.01-23.5 427.26-25.25 433.36-25 439.46-25.25 439.36-23.5 435.96-22.5 436.76-19.6 439.16-11.25 441.16-3.95 441.31-3.95 442.66-9.05 446.16-19.45 446.96-22.65 443.06-23.5 443.31-25.25 448.21-25 453.51-25.25 453.41-23.5 450.31-22.5 448.16-17.9 442.81-1.45 441.26 1.15 439.61 1.5 433.21-16.4 428.11-1.45 426.56 1.15 424.91 1.5Z" opacity="1" transform="matrix(1,0,0,1,0,0)" fill="#fcbf44" class="slogan-text-1" data-fill-palette-color="secondary" id="text-1"></path></svg></g></svg></g></svg></g></svg></g><g transform="matrix(1,0,0,1,0,27.089209187434683)"><svg viewBox="0 0 327.5380224 111.57195214866162" height="111.57195214866162" width="327.5380224"><g><svg xmlns="http://www.w3.org/2000/svg" xmlns:xlink="http://www.w3.org/1999/xlink" version="1.1" x="0" y="0" viewBox="11.038 36.42118489690029 80.962 27.578747418913224" enable-background="new 0 0 100 100" xml:space="preserve" height="111.57195214866162" width="327.5380224" class="icon-icon-0" data-fill-palette-color="accent" id="icon-0"><path fill="#0f6cd9" d="M88.929 59.372S90.858 55.835 87.45 53.489C83.573 50.821 78.889 53.311 72.927 51.766 66.967 50.223 48.977 36.93 48.977 36.93S46.666 35.444 43.472 37.551C40.272 39.667 36.545 41.458 31.801 41.108 27.069 40.756 16.912 36.965 16.912 36.965S15.437 36.508 15.35 38.568C13.963 40.547 12.606 42.101 12.331 45.741 12.056 49.38 13.799 53.792 13.799 53.792S33.667 55.067 43.986 57.419C54.308 59.771 72.495 61.397 88.929 59.372" data-fill-palette-color="accent"></path><path fill="#0f6cd9" d="M91.28 58.519S72.359 61.328 58.904 59.208C45.461 57.114 26.571 53.755 19.988 53.218 13.412 52.679 11.342 53.476 11.342 53.476L11.038 63.994H37.352L37.603 59.851C45.255 59.851 52.193 62.263 58.601 63.269 72.05 65.374 92 62.263 92 62.263z" data-fill-palette-color="accent"></path></svg></g></svg></g></svg></g><defs></defs></svg><rect width="395.52" height="83.60983782138409" fill="none" stroke="none" visibility="hidden"></rect></g></svg></g></svg>